{
  "accessors": [
    {
      "bufferView": 2,
      "componentType": 5126,
      "count": 24416,
      "max": [
        1.314893364906311,
        0.04903823509812355,
        1.3875137567520142
      ],
      "min": [
        -1.314893364906311,
        -0.52235609292984009,
        -0.77292472124099731
      ],
      "type": "VEC3"
    },
    {
      "bufferView": 2,
      "byteOffset": 292992,
      "componentType": 5126,
      "count": 24416,
      "max": [
        0.99866324663162231,
        0.99999040365219116,
        0.76924031972885132
      ],
      "min": [
        -0.99974632263183594,
        -0.98567306995391846,
        -0.76006871461868286
      ],
      "type": "VEC3"
    },
    {
      "bufferView": 3,
      "componentType": 5126,
      "count": 24416,
      "max": [
        0.99850159883499146,
        0.99212217330932617,
        0.99999594688415527,
        1
      ],
      "min": [
        -0.99848586320877075,
        -0.53526991605758667,
        -0.98984813690185547,
        -1
      ],
      "type": "VEC4"
    },
    {
      "bufferView": 1,
      "componentType": 5126,
      "count": 24416,
      "max": [
        0.96716922521591187,
        0.99099493026733398
      ],
      "min": [
        0,
        -4.76837158203125e-07
      ],
      "type": "VEC2"
    },
    {
      "bufferView": 0,
      "componentType": 5125,
      "count": 69336,
      "max": [
        24415
      ],
      "min": [
        0
      ],
      "type": "SCALAR"
    },
    {
      "bufferView": 2,
      "byteOffset": 585984,
      "componentType": 5126,
      "count": 3080,
      "max": [
        0.4463958740234375,
        -0.0077556492760777473,
        1.2107393741607666
      ],
      "min": [
        -0.4463958740234375,
        -0.21241800487041473,
        0.63760209083557129
      ],
      "type": "VEC3"
    },
    {
      "bufferView": 2,
      "byteOffset": 622944,
      "componentType": 5126,
      "count": 3080,
      "max": [
        0.99974316358566284,
        0.99957549571990967,
        0.99756842851638794
      ],
      "min": [
        -0.99981993436813354,
        -0.99781227111816406,
        -0.99711716175079346
      ],
      "type": "VEC3"
    },
    {
      "bufferView": 3,
      "byteOffset": 390656,
      "componentType": 5126,
      "count": 3080,
      "max": [
        0.97728312015533447,
        0.97532248497009277,
        0.99975353479385376,
        1
      ],
      "min": [
        -0.98013746738433838,
        -0.99496275186538696,
        -0.99985921382904053,
        -1
      ],
      "type": "VEC4"
    },
    {
      "bufferView": 1,
      "byteOffset": 195328,
      "componentType": 5126,
      "count": 3080,
      "max": [
        3.7366600036621094,
        3.9095118045806885
      ],
      "min": [
        -2.7904670238494873,
        -2.9095118045806885
      ],
      "type": "VEC2"
    },
    {
      "bufferView": 0,
      "byteOffset": 277344,
      "componentType": 5125,
      "count": 15600,
      "max": [
        3079
      ],
      "min": [
        0
      ],
      "type": "SCALAR"
    }
  ],
  "asset": {
    "extras": {
      "author": "Nobby76 (https://sketchfab.com/nobbyt76)",
      "license": "CC-BY-4.0 (http://creativecommons.org/licenses/by/4.0/)",
      "source": "https://sketchfab.com/models/33a689cfaf33427286c8f98956f5cd1e",
      "title": "Angel-wings"
    },
    "generator": "Sketchfab-4.32.0",
    "version": "2.0"
  },
  "bufferViews": [
    {
      "buffer": 0,
      "byteLength": 339744,
      "byteOffset": 0,
      "name": "floatBufferViews",
      "target": 34963
    },
    {
      "buffer": 0,
      "byteLength": 219968,
      "byteOffset": 339744,
      "byteStride": 8,
      "name": "floatBufferViews",
      "target": 34962
    },
    {
      "buffer": 0,
      "byteLength": 659904,
      "byteOffset": 559712,
      "byteStride": 12,
      "name": "floatBufferViews",
      "target": 34962
    },
    {
      "buffer": 0,
      "byteLength": 439936,
      "byteOffset": 1219616,
      "byteStride": 16,
      "name": "floatBufferViews",
      "target": 34962
    }
  ],
  "buffers": [
    {
      "byteLength": 1659552,
      "uri": "scene.bin"
    }
  ],
  "images": [
    {
      "uri": "textures/material_0_baseColor.png"
    },
    {
      "uri": "textures/material_0_normal.png"
    },
    {
      "uri": "textures/material_1_baseColor.jpeg"
    },
    {
      "uri": "textures/material_1_normal.png"
    }
  ],
  "materials": [
    {
      "alphaMode": "BLEND",
      "doubleSided": true,
      "name": "material_0",
      "normalTexture": {
        "index": 1,
        "scale": 1,
        "texCoord": 0
      },
      "pbrMetallicRoughness": {
        "baseColorFactor": [
          1,
          1,
          1,
          1
        ],
        "baseColorTexture": {
          "index": 0,
          "texCoord": 0
        },
        "metallicFactor": 0,
        "roughnessFactor": 0.98291409090000004
      }
    },
    {
      "doubleSided": true,
      "name": "material_1",
      "normalTexture": {
        "index": 3,
        "scale": 1,
        "texCoord": 0
      },
      "pbrMetallicRoughness": {
        "baseColorFactor": [
          1,
          1,
          1,
          1
        ],
        "baseColorTexture": {
          "index": 2,
          "texCoord": 0
        },
        "metallicFactor": 0,
        "roughnessFactor": 0.85083861920000003
      }
    }
  ],
  "meshes": [
    {
      "primitives": [
        {
          "attributes": {
            "NORMAL": 1,
            "POSITION": 0,
            "TANGENT": 2,
            "TEXCOORD_0": 3
          },
          "indices": 4,
          "material": 0,
          "mode": 4
        }
      ]
    },
    {
      "primitives": [
        {
          "attributes": {
            "NORMAL": 6,
            "POSITION": 5,
            "TANGENT": 7,
            "TEXCOORD_0": 8
          },
          "indices": 9,
          "material": 1,
          "mode": 4
        }
      ]
    }
  ],
  "nodes": [
    {
      "children": [
        1
      ],
      "name": "RootNode (gltf orientation matrix)",
      "rotation": [
        -0.70710678118654746,
        -0,
        -0,
        0.70710678118654757
      ]
    },
    {
      "children": [
        2
      ],
      "name": "RootNode (model correction matrix)"
    },
    {
      "children": [
        3
      ],
      "name": "Wings.lwo"
    },
    {
      "children": [
        4,
        5
      ],
      "name": "polySurface2193"
    },
    {
      "mesh": 0,
      "name": ""
    },
    {
      "mesh": 1,
      "name": ""
    }
  ],
  "samplers": [
    {
      "magFilter": 9729,
      "minFilter": 9987,
      "wrapS": 10497,
      "wrapT": 10497
    }
  ],
  "scene": 0,
  "scenes": [
    {
      "name": "OSG_Scene",
      "nodes": [
        0
      ]
    }
  ],
  "textures": [
    {
      "sampler": 0,
      "source": 0
    },
    {
      "sampler": 0,
      "source": 1
    },
    {
      "sampler": 0,
      "source": 2
    },
    {
      "sampler": 0,
      "source": 3
    }
  ]
}

